<svg width="25" height="24" viewBox="0 0 25 24" fill="none" xmlns="http://www.w3.org/2000/svg">
<path d="M9.93478 20.7733V17.7156C9.93478 16.9351 10.5722 16.3023 11.3584 16.3023H14.2326C14.6102 16.3023 14.9723 16.4512 15.2393 16.7163C15.5063 16.9813 15.6563 17.3408 15.6563 17.7156V20.7733C15.6539 21.0978 15.7821 21.4099 16.0124 21.6402C16.2427 21.8705 16.5561 22 16.8829 22H18.8438C19.7596 22.0023 20.6388 21.6428 21.2872 21.0008C21.9356 20.3588 22.3 19.487 22.3 18.5778V9.86686C22.3 9.13246 21.9721 8.43584 21.4046 7.96467L14.734 2.67587C13.5737 1.74856 11.9111 1.7785 10.7854 2.74698L4.26702 7.96467C3.67274 8.42195 3.31756 9.12064 3.3 9.86686V18.5689C3.3 20.4639 4.84738 22 6.75618 22H8.67229C9.35123 22 9.903 21.4562 9.90792 20.7822L9.93478 20.7733Z" fill="#9E9E9E"/>
</svg>
