<svg width="18" height="25" viewBox="0 0 18 25" fill="none" xmlns="http://www.w3.org/2000/svg">
<g id="Group">
<path id="Vector" fill-rule="evenodd" clip-rule="evenodd" d="M8.81864 23.2715C4.51152 23.2715 0.833336 22.6013 0.833336 19.9171C0.833336 17.2328 4.48818 14.7549 8.81864 14.7549C13.1258 14.7549 16.8039 17.2088 16.8039 19.893C16.8039 22.5762 13.1491 23.2715 8.81864 23.2715Z" stroke="white" stroke-width="1.5" stroke-linecap="round" stroke-linejoin="round"/>
<path id="Vector_2" fill-rule="evenodd" clip-rule="evenodd" d="M8.81018 11.0357C11.6367 11.0357 13.9276 8.7448 13.9276 5.91829C13.9276 3.09177 11.6367 0.799805 8.81018 0.799805C5.98367 0.799805 3.6917 3.09177 3.6917 5.91829C3.68215 8.73526 5.95715 11.0262 8.77412 11.0357C8.78685 11.0357 8.79851 11.0357 8.81018 11.0357Z" stroke="white" stroke-width="1.5" stroke-linecap="round" stroke-linejoin="round"/>
</g>
</svg>
